<?xml version="1.0" encoding="utf-8"?>
<!-- Generator: Adobe Illustrator 19.2.0, SVG Export Plug-In . SVG Version: 6.00 Build 0)  -->
<svg version="1.1" id="Layer_1" xmlns="http://www.w3.org/2000/svg" xmlns:xlink="http://www.w3.org/1999/xlink" x="0px" y="0px"
	 viewBox="0 0 613.6 471.8" style="enable-background:new 0 0 613.6 471.8;" xml:space="preserve">
<style type="text/css">
	.st0{fill:#FFFFFF;}
</style>
<g>
	<g>
		<path class="st0" d="M579.7,246.2c-17.8-6.1-37.2,3.3-43.3,21.1c-6.1,17.8,3.3,37.2,21.1,43.3c17.8,6.1,37.2-3.3,43.3-21.1
			C606.9,271.7,597.5,252.3,579.7,246.2z M590.5,293.2c-5.2-0.8-10.4,3.7-10.3,9c-4.1-3.3-10.9-2-13.4,2.6
			c-1.9-4.9-8.4-7.2-12.9-4.5c0.8-5.2-3.7-10.4-9-10.3c3.3-4.1,2-10.9-2.6-13.4c4.9-1.9,7.2-8.4,4.5-12.9c5.2,0.8,10.4-3.7,10.3-9
			c4.1,3.3,10.9,2,13.4-2.6c1.9,4.9,8.4,7.2,12.9,4.5c-0.8,5.2,3.7,10.4,9,10.3c-3.3,4.1-2,10.9,2.6,13.4
			C590,282.1,587.8,288.7,590.5,293.2z"/>
		<g>
			<path class="st0" d="M117.1,142.8c2.8-12.3,6.9-24.2,12.1-35.7l-0.3-0.1C109,100.1,92,84.2,77.7,71c-3.2-6.1-7.6-10.4-13-13
				C46.5,49,19,57.7,6,66.5c-1.9,1.2-2.9,3.5-3.1,6.4l31.5,0.7c6.9,0.3,12.8,2.1,15.1,10.9c2,7.9,1.6,17.8-2.2,26.1
				c-4.3,9.5-8.7,10.5-19.1,9.7l-28-2.4c-0.5,3.5,0.3,5.2,1.7,6.9c9.3,11.3,31.2,22.4,49.7,19.8c4.9-0.7,9.6-2.4,13.8-5.2
				c-0.7,0.5-1.4,1.2-2.1,1.7c19-5.5,33.9-5.2,53.3,1.5L117.1,142.8z"/>
		</g>
		<g>
			<path class="st0" d="M555.5,245.7c-15.9-0.4-30-2.1-41.8-6.1l-24.9-8.6c-3,12.2-7.2,24.1-12.5,35.5l25.1,8.7
				c11.8,4.1,23.9,11.4,36.7,20.9c-5.2-8.5-6.7-19.2-3.2-29.3C538.4,256.6,546.1,249.2,555.5,245.7z"/>
		</g>
	</g>
	<g>
		<path class="st0" d="M68,261.3c-5.7-17.9-24.9-27.8-42.8-22.1C7.3,245-2.6,264.1,3.1,282c5.7,17.9,24.9,27.8,42.8,22.1
			C63.9,298.4,73.7,279.2,68,261.3z M59.1,283.8c-5.3-0.2-9.9,4.9-9.2,10.1c-4.4-2.8-11-0.7-13,4.2c-2.4-4.7-9.2-6.1-13.4-2.9
			c0.2-5.3-4.9-9.9-10.1-9.2c2.8-4.5,0.7-11-4.2-13c4.7-2.4,6.1-9.2,2.9-13.4c5.3,0.2,9.9-4.9,9.2-10.1c4.5,2.8,11,0.7,13-4.2
			c2.4,4.7,9.2,6.1,13.4,2.9c-0.2,5.3,4.9,9.9,10.1,9.2c-2.8,4.4-0.7,11,4.2,13C57.3,272.9,55.8,279.6,59.1,283.8z"/>
		<g>
			<path class="st0" d="M611.9,98.1l-25.7,18.2c-5.8,3.9-11.5,6-18.6,0.2c-6.3-5.1-11.9-13.4-13.9-22.2c-2.2-10.2,0.7-13.7,9.5-19.2
				l23.9-14.8c-1.6-3.1-3.4-4-5.5-4.5c-14.2-3.5-38.3,0.7-51.7,13.9c-3.6,3.5-6.3,7.7-7.9,12.4c0.3-0.9,0.3-1.8,0.7-2.6
				c-11.9,15.7-24,24.4-43.6,30.7l-0.3,0.1c5,11.6,8.8,23.6,11.4,35.9l0.4-0.1c20-6.4,43.1-3.8,62.5-1.8c6.2,3,12.3,3.8,18.2,2.7
				c19.9-3.7,36.8-27.1,41.9-41.9C614,103,613.5,100.6,611.9,98.1z"/>
		</g>
		<g>
			<path class="st0" d="M116.5,226l-25.2,8c-11.9,3.8-26,5.1-41.9,5.2c9.3,3.7,16.9,11.3,20.1,21.6c3.3,10.2,1.5,20.9-3.9,29.2
				c13-9.2,25.3-16.3,37.2-20.1l25.3-8.1C123.1,250.3,119.2,238.3,116.5,226z"/>
		</g>
	</g>
	<g>
		<path class="st0" d="M464.7,180.6l23.1-15.3c-2.6-23.5-9.7-46.3-20.8-67.2l-27.7,0.4c-2.6-4-5.4-8-8.3-11.8l9.7-26
			c-12.9-14.2-28.2-26.6-45.7-36.5c-3.5-2-7-3.8-10.6-5.6L362,35.2c-4.5-1.8-9.1-3.3-13.7-4.7l-7.5-26.7c-12.4-2.6-25-3.8-37.5-3.8
			c-11,0-22,1-32.8,2.9l-8.2,26.5c-4.6,1.2-9.2,2.6-13.8,4.3l-21.7-17.2C205.6,26,186,39.6,169.4,57l8.9,26.3
			c-3,3.7-5.9,7.5-8.6,11.6L142,93.6c-0.1,0.1-0.2,0.3-0.2,0.4c-12,21.1-19.3,43.5-22.5,66.1l22.7,16c-0.3,4.8-0.3,9.6-0.2,14.4
			L118.7,206c2.6,23.5,9.7,46.3,20.8,67.2l27.7-0.4c2.6,4,5.4,8,8.3,11.8l-9.7,26c12.9,14.2,28.2,26.6,45.7,36.5
			c3.5,2,7,3.8,10.6,5.6l22.2-16.6c4.5,1.8,9.1,3.3,13.7,4.7l7.5,26.7c9.1,1.9,18.2,3.1,27.3,3.6l14.1-43.7c-1.3,0-2.6,0.1-3.9,0.1
			c-24.3,0-48.5-6.4-69.8-18.5c-67.9-38.5-91.9-125.2-53.3-193.1C205.1,71.5,252.4,44,303.4,44c24.3,0,48.5,6.4,69.8,18.5
			c32.9,18.7,56.6,49,66.6,85.5c10.1,36.5,5.3,74.7-13.3,107.6c-5.9,10.4-13.1,19.9-21.2,28.4l2.5,1.6l-4.3,6.1l-37.1,52.7
			l13.3,10.5c21.3-9.6,40.8-23.2,57.5-40.5l-8.9-26.3c3-3.7,5.9-7.5,8.6-11.6l27.7,1.1c0.1-0.1,0.2-0.3,0.2-0.4
			c12-21.1,19.3-43.5,22.5-66.1l-22.7-16C464.7,190.3,464.8,185.5,464.7,180.6z"/>
	</g>
	<g>
		<path class="st0" d="M272.1,134.2c0-0.2-0.1-0.3-0.1-0.3c0,0.1,0,0.1,0,0.2C272,134.2,272,134.2,272.1,134.2z"/>
		<path class="st0" d="M397.5,287.5L333,245.7l-19.2-16.8l1.8-3.6v-6.1l3.1-2.2l1.9,2c0,0,0.4,0.4,1.7,0.4c1.4,0,3.9-0.4,8.3-2.2
			l-1-6.1c0,0,13.3,4.5,14.9,4.7c0.1,0,0.1,0,0.2,0c2,0,8.9-2.4,12.1-4.7c3.4-2.5-3.8-13.9-3.8-13.9l2.5-5.4l-4.7-0.9l5.4-3.4
			c0,0-2.5-3.6-2.2-8.8c0,0,6.5-0.9,8.3-1.8c1.8-0.9,3.4-5.4,2-7s-12.3-16.4-12.3-16.4l2.5-3.8l-0.2-2.5c0,0,0.8,0.1,2.1,0.1
			c3.1,0,9.5-0.7,16.4-5.2c0,0-8.7-2.1-12.1-4.8c0,0-1.6-54.7-55.9-54.7c-1.5,0-3,0-4.6,0.1c-58.8,3.2-62.8,55.7-54,80.6
			c0,0-1.3,4.9-6,8.3c0,0,4.2,2.3,17.4,2.3c1.1,0,2.3,0,3.5-0.1l3.6,6.3l0.9,7l-1.6,4.5l-5.2-3.8l-1.3,18.6l-39.3,52.1L320,310.2
			l-52.1,161.6L397.5,287.5z M257.1,142c-5.4-5.7-0.8-11.6,3.1-18.4c3.9-6.8,5.5-15.9,5.5-15.9s5.5,7.4,12.1,11.7
			c6.6,4.3,13.5,7.5,11.2,15c-2.2,7.4-12.5,9.6-16.6-0.1l0.2,0.9c0.6,2.5,2.5,7.8,4.7,9.2c2.8,1.9,5.8,3.5,6.6,3.3l-8.2,2l-8.3,2
			c0.8-0.2,3-3,4.6-6c1.3-2.4,0.4-8.8,0-11c0-0.2-0.1-0.3-0.1-0.4C272.6,144.9,262.5,147.6,257.1,142z M265.5,174.1
			c32.2-8.5,61-17,76.8-23.9c0,0-24.7,11.3-39.5,15.1C288.3,169,285.2,170,265.5,174.1z"/>
	</g>
</g>
</svg>
