<?xml version="1.0" encoding="utf-8"?>
<!-- Generator: Adobe Illustrator 19.2.0, SVG Export Plug-In . SVG Version: 6.00 Build 0)  -->
<svg version="1.1" id="Layer_1" xmlns="http://www.w3.org/2000/svg" xmlns:xlink="http://www.w3.org/1999/xlink" x="0px" y="0px"
	 viewBox="0 0 191.6 221.2" style="enable-background:new 0 0 191.6 221.2;" xml:space="preserve">
<style type="text/css">
	.st0{fill:#636363;}
</style>
<g>
	<path class="st0" d="M187.3,52.7L100.4,2.6L95.8,0l-4.5,2.6L4.5,52.7L0,55.3v5.2v100.2v5.2l4.5,2.6l86.8,50.1l4.5,2.6l4.5-2.6
		l87-50.1l4.7-2.6v-5.2V60.5v-5.2L187.3,52.7z M183,160.7l-87,50.1L9,160.7V60.5l87-50.1l87,50.1V160.7z"/>
	<path class="st0" d="M90.6,34.8c0,2.8,1.4,5.4,4.4,6.3V71H79v-6.5c3-0.9,4.4-3.4,4.4-6.3c0-3.7-3-6.7-6.7-6.7s-6.4,3-6.4,6.7
		c0,2.8,1.7,5.4,4.7,6.3V71H59c-1.2,0-2,0.5-2,1.7v15.6v68.9v15.5c0,1.2,0.7,2.3,2,2.3h76.3c1.2,0,2.8-1.1,2.8-2.3v-15.5V88.3V72.7
		c0-1.2-1.5-1.7-2.8-1.7H118v-6.5c2-0.9,4.2-3.4,4.2-6.3c0-3.7-3.1-6.7-6.8-6.7s-6.7,3-6.7,6.7c0,2.8,2.4,5.4,4.4,6.3V71h-13V41.1
		c2-0.9,4.1-3.4,4.1-6.3c0-3.7-3.2-6.7-6.8-6.7S90.6,31.1,90.6,34.8z M61,164l4.8-4h2l-6.8,6V164z M61.2,159.4v-0.1h0.1L61.2,159.4z
		 M61.2,171l11.1-11h2l-11.1,11H61.2z M67.7,171l11.1-11h2l-11.1,11H67.7z M74.3,171l11.1-11h2l-11.1,11H74.3z M80.8,171l11.1-11h2
		l-11.1,11H80.8z M87.3,171l11.1-11h2l-11.1,11H87.3z M93.9,171l11.1-11h2l-11.1,11H93.9z M100.4,171l11.1-11h2l-11.1,11H100.4z
		 M106.9,171l11.1-11h2l-11.1,11H106.9z M113.4,171l11.1-11h2l-11.1,11H113.4z M120,171l11.1-11h1.3L122,171H120z M133,165.9
		l-4.5,5.1h-2l6.5-7.1V165.9z M133,155H61v-33h72C133,127,133,150,133,155z M133,75c0,4,0,14.4,0,14.5V118H61V89.5V75H133z"/>
	<path class="st0" d="M96.2,148.9c6.2,0,11.2-5,11.2-11.2c0-6.2-5-11.2-11.2-11.2c-6.2,0-11.2,5-11.2,11.2
		C85,143.8,90,148.9,96.2,148.9z"/>
	<path class="st0" d="M76.9,87h38.5c1.2,0,2.2-1.3,2.2-2.5c0-1.2-1-2.5-2.2-2.5H76.9c-1.2,0-2.2,1.3-2.2,2.5
		C74.7,85.7,75.6,87,76.9,87z"/>
	<path class="st0" d="M76.9,102h38.5c1.2,0,2.2-1.3,2.2-2.5c0-1.2-1-2.5-2.2-2.5H76.9c-1.2,0-2.2,1.3-2.2,2.5
		C74.7,100.7,75.6,102,76.9,102z"/>
	<path class="st0" d="M81.5,90c-1.2,0-2.2,0.8-2.2,2c0,1.2,1,2,2.2,2h29.3c1.2,0,2.2-0.8,2.2-2c0-1.2-1-2-2.2-2H81.5z"/>
	<path class="st0" d="M110.7,105H81.5c-1.2,0-2.2,0.8-2.2,2c0,1.2,1,2,2.2,2h29.3c1.2,0,2.2-0.8,2.2-2
		C112.9,105.8,112,105,110.7,105z"/>
</g>
</svg>
