<?xml version="1.0" encoding="utf-8"?>
<!-- Generator: Adobe Illustrator 19.2.0, SVG Export Plug-In . SVG Version: 6.00 Build 0)  -->
<svg version="1.1" id="Layer_1" xmlns="http://www.w3.org/2000/svg" xmlns:xlink="http://www.w3.org/1999/xlink" x="0px" y="0px"
	 viewBox="0 0 191.6 221.2" style="enable-background:new 0 0 191.6 221.2;" xml:space="preserve">
<style type="text/css">
	.st0{fill:#636363;}
</style>
<g>
	<path class="st0" d="M187.3,52.7L100.4,2.6L95.8,0l-4.5,2.6L4.5,52.7L0,55.3v5.2v100.2v5.2l4.5,2.6l86.8,50.1l4.5,2.6l4.5-2.6
		l87-50.1l4.7-2.6v-5.2V60.5v-5.2L187.3,52.7z M183,160.7l-87,50.1L9,160.7V60.5l87-50.1l87,50.1V160.7z"/>
	<path class="st0" d="M53.5,75.3c0,13.7,6.4,26.5,17.3,34.7l2.7,44.7c0.1,0.9,0.5,1.8,1.2,2.3c0.6,0.6,1.4,1,2.2,1h40.3
		c0.4,0,0.8-0.1,1.2-0.3c1.1-0.4,2-1.5,2.1-2.8l2.7-45c10.8-8.2,17.3-21,17.3-34.7c0-23.9-19.5-43.4-43.4-43.4
		C73,31.8,53.5,51.3,53.5,75.3z M96.9,38.1c20.5,0,37.2,16.7,37.2,37.2c0,11.7-5.5,22.6-14.7,29.6c-1.3,0.3-2.3,1.6-2.4,3l-2.6,44.1
		H106V95.8c7-3.4,11.5-10.5,11.5-18.6c0-8.2-4.5-15.2-11.5-18.6V79H88V58.3c-7,3.4-11.9,10.5-11.9,18.8c0,8.3,4.9,15.5,11.9,18.8
		V152h-8.5l-2.6-44.1c-0.1-1.4-1.1-2.6-2.4-2.9c-9.3-7-14.7-18-14.7-29.7C59.7,54.8,76.4,38.1,96.9,38.1z"/>
	<path class="st0" d="M117.1,162H76.8c-1.7,0-3.1,1.3-3.1,3s1.4,3,3.1,3h40.3c1.7,0,3.1-1.3,3.1-3S118.8,162,117.1,162z"/>
	<path class="st0" d="M115.2,171H79c-1.7,0-3.1,1.3-3.1,3c0,1.7,1.4,3,3.1,3h36.1c1.7,0,3.1-1.3,3.1-3
		C118.2,172.3,116.9,171,115.2,171z"/>
	<path class="st0" d="M114,180H80.2c-1.7,0-3.1,1.8-3.1,3.5c0,1.7,1.4,3.5,3.1,3.5H114c1.7,0,3.1-1.8,3.1-3.5
		C117.1,181.8,115.7,180,114,180z"/>
</g>
</svg>
