<?xml version="1.0" encoding="utf-8"?>
<!-- Generator: Adobe Illustrator 19.2.0, SVG Export Plug-In . SVG Version: 6.00 Build 0)  -->
<svg version="1.1" id="Layer_1" xmlns="http://www.w3.org/2000/svg" xmlns:xlink="http://www.w3.org/1999/xlink" x="0px" y="0px"
	 viewBox="0 0 191.6 221.2" style="enable-background:new 0 0 191.6 221.2;" xml:space="preserve">
<style type="text/css">
	.st0{fill:#636363;}
</style>
<g>
	<path class="st0" d="M187.3,52.7L100.4,2.6L95.8,0l-4.5,2.6L4.5,52.7L0,55.3v5.2v100.2v5.2l4.5,2.6l86.8,50.1l4.5,2.6l4.5-2.6
		l87-50.1l4.7-2.6v-5.2V60.5v-5.2L187.3,52.7z M183,160.7l-87,50.1L9,160.7V60.5l87-50.1l87,50.1V160.7z"/>
	<path class="st0" d="M38,56.5v109c0,1.4,1.1,2.5,2.5,2.5h109c1.4,0,2.5-1.1,2.5-2.5v-109c0-1.4-1.1-2.5-2.5-2.5h-109
		C39.1,54,38,55.1,38,56.5z M43,59h105v104H43V59z"/>
	<path class="st0" d="M95.6,73.7C75,73.7,58.3,90.4,58.3,111s16.7,37.3,37.3,37.3c20.6,0,37.3-16.7,37.3-37.3S116.1,73.7,95.6,73.7z
		 M95.6,143.3c-17.8,0-32.3-14.5-32.3-32.3s14.5-32.3,32.3-32.3s32.3,14.5,32.3,32.3S113.4,143.3,95.6,143.3z"/>
	<path class="st0" d="M97.3,94.3c-0.9-1-2.5-1-3.5-0.1l-12.9,12.2c-1,0.9-1,2.5-0.1,3.5c0.9,1,2.5,1,3.5,0.1l8.7-8.2v26.6
		c0,1.4,1.1,2.5,2.5,2.5c1.4,0,2.5-1.1,2.5-2.5v-26.3l8,8.1c0.5,0.5,1.1,0.7,1.8,0.7c0.6,0,1.3-0.2,1.7-0.7c1-1,1-2.5,0-3.5
		L97.3,94.3z"/>
</g>
</svg>
