<?xml version="1.0" encoding="utf-8"?>
<!-- Generator: Adobe Illustrator 19.2.0, SVG Export Plug-In . SVG Version: 6.00 Build 0)  -->
<svg version="1.1" id="Layer_1" xmlns="http://www.w3.org/2000/svg" xmlns:xlink="http://www.w3.org/1999/xlink" x="0px" y="0px"
	 viewBox="0 0 191.6 221.2" style="enable-background:new 0 0 191.6 221.2;" xml:space="preserve">
<style type="text/css">
	.st0{fill:#636363;}
</style>
<g>
	<path class="st0" d="M187.3,52.7L100.4,2.6L95.8,0l-4.5,2.6L4.5,52.7L0,55.3v5.2v100.2v5.2l4.5,2.6l86.8,50.1l4.5,2.6l4.5-2.6
		l87-50.1l4.7-2.6v-5.2V60.5v-5.2L187.3,52.7z M183,160.7l-87,50.1L9,160.7V60.5l87-50.1l87,50.1V160.7z"/>
	<path class="st0" d="M94.8,93.9c-0.8,0.8-0.8,2.2,0,3c0.8,0.8,2.2,0.8,3,0l7.7-7.8c0.6-0.6,0.8-1.5,0.5-2.3
		c-3.8-9.7-1.9-19.6,5-26.5c6.3-6.3,15.4-8.8,23.9-6.7l-11.4,11.4c-2.5,2.5-3.8,5.8-3.8,9.3c0,3.5,1.4,6.8,3.8,9.3
		c2.5,2.5,5.8,3.8,9.3,3.8c3.5,0,6.8-1.4,9.3-3.8l11.4-11.4c2.1,8.5-0.4,17.6-6.7,23.9c-6.9,6.9-16.8,8.8-26.5,5
		c-1.1-0.4-2.3,0.1-2.8,1.2c-0.4,1.1,0.1,2.3,1.2,2.8c3.8,1.5,7.7,2.2,11.4,2.2c7.3,0,14.2-2.8,19.6-8.2c8.3-8.3,10.9-20.8,6.6-31.7
		c-0.3-0.7-0.8-1.2-1.5-1.3c-0.7-0.1-1.4,0.1-1.9,0.6l-13.9,13.9c-1.7,1.7-3.9,2.6-6.2,2.6c-2.4,0-4.6-0.9-6.2-2.6
		c-1.7-1.7-2.6-3.9-2.6-6.2c0-2.4,0.9-4.6,2.6-6.2l13.9-13.9c0.5-0.5,0.7-1.2,0.6-1.9c-0.1-0.7-0.6-1.3-1.3-1.5
		c-10.9-4.3-23.4-1.7-31.7,6.6c-7.8,7.8-10.2,18.9-6.5,29.7L94.8,93.9z"/>
	<path class="st0" d="M87,132.7l-31.9,31.9c-0.1,0-4.1,3.9-8.6,2.5c-1.1-0.4-2.3,0.3-2.7,1.4c-0.4,1.1,0.3,2.3,1.4,2.7
		c1.2,0.4,2.3,0.5,3.4,0.5c5.4,0,9.3-3.9,9.5-4.1l31.9-31.9c0.8-0.8,0.8-2.2,0-3C89.2,131.9,87.9,131.9,87,132.7z"/>
	<path class="st0" d="M82.3,112.4c0.8-0.8,0.8-2.2,0-3c-0.8-0.8-2.2-0.8-3,0L39.6,149c-0.2,0.2-5.8,5.9-3.5,12.9
		c0.3,0.9,1.1,1.5,2,1.5c0.2,0,0.4,0,0.6-0.1c1.1-0.4,1.8-1.6,1.4-2.7c-1.4-4.5,2.5-8.6,2.5-8.6L82.3,112.4z"/>
	<path class="st0" d="M113.3,109.4c-0.2-0.2-0.5-0.4-0.8-0.5l-22.8-7.6L66.8,78.5c-0.4-0.4-0.9-0.5-1.5-0.5H51L40.8,61l5.3-5.5
		L63,65.6v6.5c0,1.2,0.8,2.1,2,2.1c1.2,0,2-0.9,2-2.1v-7.8c0-0.7-0.2-1.4-0.8-1.8L46.9,50.9c-0.8-0.5-1.9-0.4-2.6,0.3L36.6,59
		c-0.7,0.7-0.8,1.8-0.3,2.6L47.9,81c0.4,0.7,1.1,1,1.8,1h14.6L87,104.7c0,0,0,0,0,0c0.2,0.2,0.4,0.3,0.6,0.4c0,0,0.1,0,0.1,0
		c0,0,0.1,0,0.1,0l22.8,7.6l38.4,38.4c0.1,0.1,4.8,4.9,3.3,9.5c-0.4,1.1,0.3,2.3,1.4,2.7c0.2,0.1,0.4,0.1,0.6,0.1
		c0.9,0,1.7-0.6,2-1.5c2.2-7-4.1-13.5-4.4-13.8L113.3,109.4z"/>
	<path class="st0" d="M146.1,167.1c-4.6,1.4-9.4-3.3-9.5-3.3l-38.4-38.4l-3.7-11.2c-0.4-1.1-1.6-1.7-2.7-1.3
		c-1.1,0.4-1.7,1.6-1.4,2.7l3.9,11.6c0.1,0.3,0.3,0.6,0.5,0.8l38.8,38.8c0.2,0.2,5,4.9,10.7,4.9c1,0,2-0.1,3.1-0.5
		c1.1-0.4,1.7-1.6,1.4-2.7C148.4,167.3,147.2,166.7,146.1,167.1z"/>
	<path class="st0" d="M142.9,159.6c0.5,0,1.1-0.2,1.5-0.6c0.8-0.8,0.8-2.2,0-3l-38.8-38.8c-0.8-0.8-2.2-0.8-3,0
		c-0.8,0.8-0.8,2.2,0,3l38.8,38.8C141.8,159.4,142.3,159.6,142.9,159.6z"/>
</g>
</svg>
