<?xml version="1.0" encoding="utf-8"?>
<!-- Generator: Adobe Illustrator 19.2.0, SVG Export Plug-In . SVG Version: 6.00 Build 0)  -->
<svg version="1.1" id="Layer_1" xmlns="http://www.w3.org/2000/svg" xmlns:xlink="http://www.w3.org/1999/xlink" x="0px" y="0px"
	 viewBox="0 0 191.6 221.2" style="enable-background:new 0 0 191.6 221.2;" xml:space="preserve">
<style type="text/css">
	.st0{fill:#636363;}
</style>
<g>
	<path class="st0" d="M187.3,52.7L100.4,2.6L95.8,0l-4.5,2.6L4.5,52.7L0,55.3v5.2v100.2v5.2l4.5,2.6l86.8,50.1l4.5,2.6l4.5-2.6
		l87-50.1l4.7-2.6v-5.2V60.5v-5.2L187.3,52.7z M96,10.4l87,50.1v48.9l-86.5,0c-1,0-2,0.6-2.4,1.5l-1.3,2.7L89.3,101
		c-0.3-1.1-1.4-2-2.5-1.8c-1.2,0-2.2,0.9-2.4,2l-12,58.5L62.3,53.9c-0.1-1.2-1.1-2.2-2.4-2.3c-1.3-0.1-2.4,0.8-2.6,2l-12.5,66.4
		l-5.7-23.8c-0.3-1.1-1.2-1.8-2.3-1.9c-1.1-0.1-2.1,0.3-2.5,1.4L29,109H9V60.5L96,10.4z M96,210.8L9,160.7V114h21.7
		c1,0,2-0.4,2.3-1.4l3.1-7.6l6.6,27.5c0.3,1.2,1.3,1.9,2.5,2c1.2,0,2.2-0.9,2.4-2L59,72.1l10.1,104.8c0.1,1.2,1.1,2.2,2.4,2.3
		c0,0,0.1,0,0.1,0c1.2,0,2.2-0.8,2.5-2l13.2-64.7l2.6,9.2c0.3,1,1.2,1.8,2.2,1.8c1.1,0.1,2.1-0.7,2.5-1.7L98,114h85v46.7L96,210.8z"
		/>
	<path class="st0" d="M165.6,98.2c0.3,0.1,0.6,0.2,0.9,0.2c0.3,0,0.6-0.1,0.9-0.2c0.6-0.2,13.5-5.5,13.5-15.2c0-2.5-0.9-4.9-2.7-6.7
		c-1.8-1.8-4.2-2.8-6.7-2.8c-1.8,0-3.5,0.7-4.9,1.8c-1.5-1.1-3.3-1.8-5.1-1.8c-5.2,0-9.4,4.2-9.4,9.4C152.1,92.7,165,98,165.6,98.2z
		 M161.5,78.6c1.1,0,2.5,0.9,2.7,1.5c0.4,0.8,1.2,1.4,2.2,1.4c0.9,0.1,1.8-0.5,2.3-1.3c0.4-0.7,1.8-1.6,2.8-1.6
		c1.2,0,2.3,0.5,3.1,1.3c0.8,0.8,1.3,1.9,1.3,3.1c0,4.7-6.1,8.6-9.4,10.1c-3.3-1.6-9.4-5.4-9.4-10.1
		C157.1,80.6,159.1,78.6,161.5,78.6z"/>
</g>
</svg>
