<?xml version="1.0" encoding="utf-8"?>
<!-- Generator: Adobe Illustrator 19.2.0, SVG Export Plug-In . SVG Version: 6.00 Build 0)  -->
<svg version="1.1" id="Layer_1" xmlns="http://www.w3.org/2000/svg" xmlns:xlink="http://www.w3.org/1999/xlink" x="0px" y="0px"
	 viewBox="0 0 191.6 221.2" style="enable-background:new 0 0 191.6 221.2;" xml:space="preserve">
<style type="text/css">
	.st0{fill:#636363;}
</style>
<g>
	<path class="st0" d="M187.3,52.7L100.4,2.6L95.8,0l-4.5,2.6L4.5,52.7L0,55.3v5.2v100.2v5.2l4.5,2.6l86.8,50.1l4.5,2.6l4.5-2.6
		l87-50.1l4.7-2.6v-5.2V60.5v-5.2L187.3,52.7z M183,160.7l-87,50.1L9,160.7V60.5l87-50.1l87,50.1V160.7z"/>
	<path class="st0" d="M76.5,36.2c0,0-0.2,0-0.2,0c0,0-0.3,0-0.3,0v8.6c0,0,0.2,0.1,0.3,0.1c0,0,0.1-0.1,0.1-0.1
		c0,1.3,1.2,2.2,2.5,2.2H89v3h-0.9c-1.3,0-2.1,1.2-2.1,2.5v9c0,0.1-0.1,0.1-0.1,0.2c0,0.1,0.1,5.3-5.6,7.6C71.1,73,61,81.9,61,95.8
		v80c0,5.5,4.9,10.3,10.4,10.3h48.4c5.5,0,10.2-4.8,10.2-10.3v-80c0-13.8-9.9-22.7-19-26.4c-5.5-2.2-5.2-7.1-5.1-7.6
		c0-0.1,0.2-0.1,0.2-0.2v-9c0-1.3-1.6-2.5-2.9-2.5H103v-3h18.3c1.3,0,2.4-0.9,2.4-2.2c0,0,0.1,0,0.1,0c0,0,0.1,0,0.1,0v-8.6
		c0,0-0.1-0.1-0.1-0.1c0,0-0.1,0.1-0.1,0.1c0-1.3-1.1-2.2-2.5-2.2H78.9C77.6,34,76.5,34.9,76.5,36.2z M125,175.7
		c0,2.8-2.4,5.3-5.2,5.3H71.4c-2.8,0-5.4-2.5-5.4-5.3V156h59V175.7z M125,151H66v-7h59V151z M109.2,73.8c2.7,1.1,15.8,7.2,15.8,22
		V139H66V95.8c0-14.8,13.1-20.9,15.8-22c7.1-2.9,9.2-9.2,8.2-12.3V55h11v6.4C100,64.5,102.1,70.9,109.2,73.8z M94,50v-3h4v3H94z
		 M115,38h4v5h-4V38z M81,38h29v5H81V38z"/>
</g>
</svg>
